<svg width="15" height="15" viewBox="0 0 15 15" fill="none" xmlns="http://www.w3.org/2000/svg">
    <path d="M0 0.703125C0 0.313477 0.281029 0 0.630345 0H1.82538C2.40319 0 2.91535 0.375 3.15435 0.9375H13.949C14.6398 0.9375 15.144 1.66992 14.9628 2.41406L13.886 6.87598C13.6627 7.7959 12.9142 8.4375 12.0606 8.4375H4.48333L4.62516 9.27246C4.68294 9.60352 4.94296 9.84375 5.245 9.84375H12.817C13.1663 9.84375 13.4474 10.1572 13.4474 10.5469C13.4474 10.9365 13.1663 11.25 12.817 11.25H5.245C4.33625 11.25 3.5562 10.5293 3.38811 9.53613L2.03286 1.59668C2.01448 1.48535 1.92781 1.40625 1.82538 1.40625H0.630345C0.281029 1.40625 0 1.09277 0 0.703125ZM3.36184 13.5937C3.36184 13.4091 3.39445 13.2262 3.45781 13.0556C3.52116 12.885 3.61402 12.73 3.73109 12.5994C3.84816 12.4688 3.98713 12.3652 4.14009 12.2945C4.29304 12.2239 4.45698 12.1875 4.62253 12.1875C4.78809 12.1875 4.95202 12.2239 5.10498 12.2945C5.25793 12.3652 5.39691 12.4688 5.51398 12.5994C5.63104 12.73 5.7239 12.885 5.78726 13.0556C5.85061 13.2262 5.88322 13.4091 5.88322 13.5937C5.88322 13.7784 5.85061 13.9613 5.78726 14.1319C5.7239 14.3025 5.63104 14.4575 5.51398 14.5881C5.39691 14.7187 5.25793 14.8223 5.10498 14.893C4.95202 14.9636 4.78809 15 4.62253 15C4.45698 15 4.29304 14.9636 4.14009 14.893C3.98713 14.8223 3.84816 14.7187 3.73109 14.5881C3.61402 14.4575 3.52116 14.3025 3.45781 14.1319C3.39445 13.9613 3.36184 13.7784 3.36184 13.5937ZM12.1867 12.1875C12.521 12.1875 12.8417 12.3357 13.0781 12.5994C13.3145 12.8631 13.4474 13.2208 13.4474 13.5937C13.4474 13.9667 13.3145 14.3244 13.0781 14.5881C12.8417 14.8518 12.521 15 12.1867 15C11.8523 15 11.5317 14.8518 11.2952 14.5881C11.0588 14.3244 10.926 13.9667 10.926 13.5937C10.926 13.2208 11.0588 12.8631 11.2952 12.5994C11.5317 12.3357 11.8523 12.1875 12.1867 12.1875Z" fill="black"/>
</svg>
