<svg width="50" height="50" viewBox="0 0 50 50" fill="none" xmlns="http://www.w3.org/2000/svg">
<path d="M25 0C11.206 0 0 11.206 0 25C0 38.794 11.206 50 25 50C38.794 50 50 38.794 50 25C50 11.206 38.794 0 25 0ZM25 2.17391C37.6191 2.17391 47.8261 12.3809 47.8261 25C47.8261 37.6191 37.6191 47.8261 25 47.8261C12.3809 47.8261 2.17391 37.6191 2.17391 25C2.17391 12.3809 12.3809 2.17391 25 2.17391ZM35.8568 14.1177C35.6802 14.1212 35.5071 14.1677 35.3525 14.2531C35.1978 14.3386 35.0664 14.4604 34.9694 14.6081L23.8812 30.9528L15.9562 23.5988C15.8521 23.4987 15.7291 23.4203 15.5943 23.3682C15.4595 23.3161 15.3158 23.2914 15.1713 23.2955C15.0269 23.2997 14.8848 23.3326 14.7532 23.3923C14.6217 23.452 14.5033 23.5373 14.4051 23.6432C14.3069 23.7492 14.2308 23.8737 14.1813 24.0094C14.1317 24.1451 14.1098 24.2893 14.1166 24.4336C14.1234 24.5779 14.159 24.7194 14.2211 24.8499C14.2833 24.9803 14.3708 25.097 14.4786 25.1932L24.257 34.2667L36.7697 15.8267C36.8845 15.6622 36.9515 15.4692 36.9634 15.269C36.9753 15.0688 36.9316 14.8693 36.8371 14.6924C36.7426 14.5155 36.601 14.3682 36.428 14.2668C36.255 14.1653 36.0573 14.1137 35.8568 14.1177Z" fill="#17FF02"/>
</svg>
